<mxfile host="app.diagrams.net" modified="2024-05-09T02:22:07.188Z" agent="Mozilla/5.0 (Windows NT 10.0; Win64; x64; rv:125.0) Gecko/20100101 Firefox/125.0" etag="PsDB7JK3PCLz3f6VvU_D" version="24.0.5" type="github">
  <diagram name="Page-1" id="XsfGfJSFHgTVy1Vid8Du">
    <mxGraphModel dx="807" dy="685" grid="1" gridSize="10" guides="1" tooltips="1" connect="1" arrows="1" fold="1" page="1" pageScale="1" pageWidth="850" pageHeight="1100" math="0" shadow="0">
      <root>
        <mxCell id="0" />
        <mxCell id="1" parent="0" />
        <mxCell id="FlrjteHUqGNIBL1YqrsK-11" value="" style="edgeStyle=orthogonalEdgeStyle;rounded=0;orthogonalLoop=1;jettySize=auto;html=1;entryX=0;entryY=0.5;entryDx=0;entryDy=0;exitX=1;exitY=0.5;exitDx=0;exitDy=0;" edge="1" parent="1" source="FlrjteHUqGNIBL1YqrsK-1" target="FlrjteHUqGNIBL1YqrsK-20">
          <mxGeometry relative="1" as="geometry">
            <mxPoint x="310" y="470" as="targetPoint" />
          </mxGeometry>
        </mxCell>
        <mxCell id="FlrjteHUqGNIBL1YqrsK-1" value="GEMM性能优化" style="rounded=1;whiteSpace=wrap;html=1;fillColor=#cce5ff;strokeColor=#36393d;" vertex="1" parent="1">
          <mxGeometry x="80" y="360" width="120" height="40" as="geometry" />
        </mxCell>
        <mxCell id="FlrjteHUqGNIBL1YqrsK-6" value="" style="edgeStyle=orthogonalEdgeStyle;rounded=0;orthogonalLoop=1;jettySize=auto;html=1;exitX=1;exitY=0.5;exitDx=0;exitDy=0;" edge="1" parent="1" source="FlrjteHUqGNIBL1YqrsK-2" target="FlrjteHUqGNIBL1YqrsK-20">
          <mxGeometry relative="1" as="geometry">
            <mxPoint x="310" y="470" as="targetPoint" />
          </mxGeometry>
        </mxCell>
        <mxCell id="FlrjteHUqGNIBL1YqrsK-2" value="AI算子性能优化" style="rounded=1;whiteSpace=wrap;html=1;fillColor=#cce5ff;strokeColor=#36393d;" vertex="1" parent="1">
          <mxGeometry x="80" y="419" width="120" height="40" as="geometry" />
        </mxCell>
        <mxCell id="FlrjteHUqGNIBL1YqrsK-7" value="" style="edgeStyle=orthogonalEdgeStyle;rounded=0;orthogonalLoop=1;jettySize=auto;html=1;entryX=0;entryY=0.5;entryDx=0;entryDy=0;exitX=1;exitY=0.5;exitDx=0;exitDy=0;" edge="1" parent="1" source="FlrjteHUqGNIBL1YqrsK-3" target="FlrjteHUqGNIBL1YqrsK-20">
          <mxGeometry relative="1" as="geometry">
            <mxPoint x="310" y="470" as="targetPoint" />
          </mxGeometry>
        </mxCell>
        <mxCell id="FlrjteHUqGNIBL1YqrsK-3" value="AI框架性能优化" style="rounded=1;whiteSpace=wrap;html=1;fillColor=#cce5ff;strokeColor=#36393d;" vertex="1" parent="1">
          <mxGeometry x="80" y="480" width="120" height="40" as="geometry" />
        </mxCell>
        <mxCell id="FlrjteHUqGNIBL1YqrsK-9" value="" style="edgeStyle=orthogonalEdgeStyle;rounded=0;orthogonalLoop=1;jettySize=auto;html=1;exitX=1;exitY=0.5;exitDx=0;exitDy=0;entryX=0;entryY=0.5;entryDx=0;entryDy=0;" edge="1" parent="1" source="FlrjteHUqGNIBL1YqrsK-4" target="FlrjteHUqGNIBL1YqrsK-20">
          <mxGeometry relative="1" as="geometry">
            <mxPoint x="310" y="470" as="targetPoint" />
          </mxGeometry>
        </mxCell>
        <mxCell id="FlrjteHUqGNIBL1YqrsK-4" value="RCCL通信优化" style="rounded=1;whiteSpace=wrap;html=1;fillColor=#cce5ff;strokeColor=#36393d;" vertex="1" parent="1">
          <mxGeometry x="80" y="540" width="120" height="40" as="geometry" />
        </mxCell>
        <mxCell id="FlrjteHUqGNIBL1YqrsK-25" value="" style="edgeStyle=orthogonalEdgeStyle;rounded=0;orthogonalLoop=1;jettySize=auto;html=1;exitX=1;exitY=0.5;exitDx=0;exitDy=0;entryX=0;entryY=0.5;entryDx=0;entryDy=0;" edge="1" parent="1" source="FlrjteHUqGNIBL1YqrsK-20" target="FlrjteHUqGNIBL1YqrsK-24">
          <mxGeometry relative="1" as="geometry">
            <mxPoint x="430" y="383" as="targetPoint" />
            <Array as="points">
              <mxPoint x="420" y="439" />
              <mxPoint x="420" y="383" />
            </Array>
          </mxGeometry>
        </mxCell>
        <mxCell id="FlrjteHUqGNIBL1YqrsK-19" value="性能分析系统" style="swimlane;fontStyle=0;childLayout=stackLayout;horizontal=1;startSize=26;fillColor=#d5e8d4;horizontalStack=0;resizeParent=1;resizeParentMax=0;resizeLast=0;collapsible=1;marginBottom=0;html=1;strokeColor=#82b366;gradientColor=#97d077;" vertex="1" parent="1">
          <mxGeometry x="280" y="400" width="120" height="104" as="geometry" />
        </mxCell>
        <mxCell id="FlrjteHUqGNIBL1YqrsK-20" value="AI网络性能" style="text;strokeColor=#d6b656;fillColor=#fff2cc;align=left;verticalAlign=top;spacingLeft=4;spacingRight=4;overflow=hidden;rotatable=0;points=[[0,0.5],[1,0.5]];portConstraint=eastwest;whiteSpace=wrap;html=1;gradientColor=#ffd966;" vertex="1" parent="FlrjteHUqGNIBL1YqrsK-19">
          <mxGeometry y="26" width="120" height="26" as="geometry" />
        </mxCell>
        <mxCell id="FlrjteHUqGNIBL1YqrsK-21" value="算子性能" style="text;strokeColor=#82b366;fillColor=#d5e8d4;align=left;verticalAlign=top;spacingLeft=4;spacingRight=4;overflow=hidden;rotatable=0;points=[[0,0.5],[1,0.5]];portConstraint=eastwest;whiteSpace=wrap;html=1;" vertex="1" parent="FlrjteHUqGNIBL1YqrsK-19">
          <mxGeometry y="52" width="120" height="26" as="geometry" />
        </mxCell>
        <mxCell id="FlrjteHUqGNIBL1YqrsK-22" value="GEMM性能" style="text;strokeColor=#82b366;fillColor=#d5e8d4;align=left;verticalAlign=top;spacingLeft=4;spacingRight=4;overflow=hidden;rotatable=0;points=[[0,0.5],[1,0.5]];portConstraint=eastwest;whiteSpace=wrap;html=1;" vertex="1" parent="FlrjteHUqGNIBL1YqrsK-19">
          <mxGeometry y="78" width="120" height="26" as="geometry" />
        </mxCell>
        <mxCell id="FlrjteHUqGNIBL1YqrsK-30" value="" style="edgeStyle=orthogonalEdgeStyle;rounded=0;orthogonalLoop=1;jettySize=auto;html=1;" edge="1" parent="1" source="FlrjteHUqGNIBL1YqrsK-24" target="FlrjteHUqGNIBL1YqrsK-29">
          <mxGeometry relative="1" as="geometry" />
        </mxCell>
        <mxCell id="FlrjteHUqGNIBL1YqrsK-24" value="节点-1" style="shape=step;perimeter=stepPerimeter;whiteSpace=wrap;html=1;fixedSize=1;fillColor=#fff2cc;strokeColor=#d6b656;fontStyle=0;startSize=26;gradientColor=#ffd966;" vertex="1" parent="1">
          <mxGeometry x="440" y="359" width="80" height="48" as="geometry" />
        </mxCell>
        <mxCell id="FlrjteHUqGNIBL1YqrsK-32" value="" style="edgeStyle=orthogonalEdgeStyle;rounded=0;orthogonalLoop=1;jettySize=auto;html=1;" edge="1" parent="1" source="FlrjteHUqGNIBL1YqrsK-29" target="FlrjteHUqGNIBL1YqrsK-31">
          <mxGeometry relative="1" as="geometry" />
        </mxCell>
        <mxCell id="FlrjteHUqGNIBL1YqrsK-29" value="节点-2" style="shape=step;perimeter=stepPerimeter;whiteSpace=wrap;html=1;fixedSize=1;fillColor=#fff2cc;strokeColor=#d6b656;fontStyle=0;startSize=26;gradientColor=#ffd966;" vertex="1" parent="1">
          <mxGeometry x="540" y="359" width="80" height="48" as="geometry" />
        </mxCell>
        <mxCell id="FlrjteHUqGNIBL1YqrsK-31" value="节点-3" style="shape=step;perimeter=stepPerimeter;whiteSpace=wrap;html=1;fixedSize=1;fillColor=#fff2cc;strokeColor=#d6b656;fontStyle=0;startSize=26;gradientColor=#ffd966;" vertex="1" parent="1">
          <mxGeometry x="640" y="359" width="80" height="48" as="geometry" />
        </mxCell>
        <mxCell id="FlrjteHUqGNIBL1YqrsK-33" value="&lt;div&gt;大模型-1&lt;/div&gt;&lt;div&gt;CV网络-1&lt;br&gt;&lt;/div&gt;" style="shape=note;whiteSpace=wrap;html=1;backgroundOutline=1;darkOpacity=0.05;fillColor=#fff2cc;strokeColor=#d6b656;" vertex="1" parent="1">
          <mxGeometry x="440" y="421" width="80" height="90" as="geometry" />
        </mxCell>
        <mxCell id="FlrjteHUqGNIBL1YqrsK-35" value="&lt;div&gt;大模型-2&lt;/div&gt;&lt;div&gt;CV网络-2&lt;br&gt;&lt;/div&gt;" style="shape=note;whiteSpace=wrap;html=1;backgroundOutline=1;darkOpacity=0.05;fillColor=#fff2cc;strokeColor=#d6b656;" vertex="1" parent="1">
          <mxGeometry x="540" y="421" width="80" height="90" as="geometry" />
        </mxCell>
        <mxCell id="FlrjteHUqGNIBL1YqrsK-36" value="&lt;div&gt;大模型-3&lt;/div&gt;&lt;div&gt;CV网络-3&lt;br&gt;&lt;/div&gt;" style="shape=note;whiteSpace=wrap;html=1;backgroundOutline=1;darkOpacity=0.05;fillColor=#fff2cc;strokeColor=#d6b656;" vertex="1" parent="1">
          <mxGeometry x="640" y="421" width="80" height="90" as="geometry" />
        </mxCell>
        <mxCell id="FlrjteHUqGNIBL1YqrsK-37" value="" style="strokeWidth=2;html=1;shape=mxgraph.flowchart.annotation_2;align=left;labelPosition=right;pointerEvents=1;rotation=-90;" vertex="1" parent="1">
          <mxGeometry x="562.5" y="398.5" width="35" height="270" as="geometry" />
        </mxCell>
        <mxCell id="FlrjteHUqGNIBL1YqrsK-39" value="所有目标网络" style="rounded=1;whiteSpace=wrap;html=1;fillColor=#ffcd28;strokeColor=#d79b00;gradientColor=#ffa500;" vertex="1" parent="1">
          <mxGeometry x="520" y="550" width="120" height="40" as="geometry" />
        </mxCell>
      </root>
    </mxGraphModel>
  </diagram>
</mxfile>
